<svg role="img" viewBox="0 0 24 24" xmlns="http://www.w3.org/2000/svg"><title>Wind</title><path d="M1 16.628L1 16.909L1.16 17.23L1.441 17.43L1.842 17.47L3.084 16.789L4.086 16.428L5.448 16.107L6.73 15.947L8.694 15.907L9.616 15.987L11.179 16.308L11.9 16.588L12.421 16.869L12.862 17.23L13.262 17.75L13.423 18.151L13.463 18.752L13.383 19.113L13.182 19.474L12.781 19.874L12.26 20.075L11.74 20.075L11.259 19.914L10.617 19.393L10.417 19.073L10.177 18.191L9.856 17.951L9.455 17.911L9.255 17.991L9.015 18.191L8.895 18.512L8.935 18.993L9.135 19.634L9.415 20.115L9.736 20.516L10.457 21.077L10.858 21.277L11.419 21.437L12.421 21.437L12.942 21.277L13.503 20.957L14.024 20.436L14.224 20.155L14.464 19.674L14.624 19.113L14.664 18.231L14.584 17.791L14.344 17.149L13.944 16.548L13.342 15.947L12.822 15.586L11.7 15.065L10.337 14.704L9.536 14.624L8.053 14.584L7.332 14.624L6.61 14.744L5.648 14.945L4.686 15.225L3.364 15.706L2.803 15.987L2.242 16.348L1.16 17.149ZM23 9.374L22.8 8.692L22.399 7.971L21.758 7.289L21.357 7.009L20.516 6.608L19.794 6.448L18.873 6.448L18.432 6.528L17.951 6.689L17.47 6.929L16.709 7.53L16.348 7.971L16.027 8.532L15.746 9.415L15.746 9.656L15.867 9.937L16.067 10.137L16.388 10.257L16.709 10.217L16.949 10.057L17.069 9.896L17.27 9.215L17.43 8.895L17.63 8.614L18.191 8.133L18.552 7.971L18.993 7.85L19.714 7.85L20.075 7.931L20.556 8.131L20.797 8.292L21.277 8.773L21.557 9.255L21.678 9.736L21.678 10.257L21.557 10.858L21.197 11.54L20.716 12.02L20.075 12.381L19.193 12.621L18.472 12.661L17.55 12.541L17.31 12.461L16.869 12.421L16.428 12.301L16.227 12.301L14.825 12.02L14.584 12.02L14.544 11.98L14.304 11.98L14.264 11.94L13.743 11.9L13.423 11.82L13.102 11.82L13.062 11.78L12.1 11.74L11.259 11.74L10.177 11.78L9.856 11.82L9.536 11.82L9.495 11.86L8.414 11.98L7.212 12.22L5.808 12.581L4.205 13.102L3.844 13.463L3.804 13.944L3.884 14.144L4.125 14.384L4.325 14.464L4.646 14.464L6.57 13.824L8.534 13.383L9.736 13.222L10.057 13.182L11.54 13.142L12.421 13.182L13.342 13.262L14.264 13.383L14.504 13.423L15.666 13.583L17.149 13.904L17.871 13.984L18.151 14.064L18.432 14.064L18.472 14.104L19.193 14.104L19.233 14.064L19.514 14.064L20.155 13.944L20.877 13.703L21.518 13.383L21.998 13.022L22.599 12.381L22.96 11.78L23.24 10.938L23.28 10.377L23.32 10.337L23.28 9.856ZM15.586 4.205L15.345 3.844L14.865 3.364L14.584 3.164L13.984 2.883L13.383 2.763L12.822 2.763L12.22 2.883L11.66 3.124L11.139 3.484L10.778 3.844L10.417 4.365L10.217 4.806L10.057 5.448L10.057 5.929L10.137 6.129L10.377 6.37L10.537 6.448L10.978 6.448L11.139 6.37L11.339 6.169L11.419 6.009L11.459 5.568L11.66 5.007L12.14 4.486L12.701 4.205L12.902 4.165L13.503 4.205L13.904 4.405L14.264 4.766L14.464 5.127L14.544 5.408L14.544 6.089L14.464 6.33L14.224 6.73L13.783 7.172L13.503 7.372L12.902 7.651L11.9 8.053L10.818 8.414L8.815 8.895L8.454 8.935L8.253 9.015L7.893 9.055L7.692 9.135L7.332 9.175L7.132 9.255L5.528 9.576L3.724 10.017L3.484 10.217L3.364 10.417L3.324 10.698L3.444 11.058L3.644 11.259L3.804 11.339L4.005 11.379L4.045 11.339L4.285 11.339L6.049 10.898L6.209 10.898L7.132 10.658L7.492 10.617L8.053 10.457L9.856 10.097L11.139 9.776L12.26 9.415L13.383 8.975L14.224 8.574L14.744 8.213L15.305 7.652L15.506 7.372L15.867 6.57L15.947 6.209L15.947 5.768L15.987 5.728L15.947 5.247L15.826 4.726Z"/></svg>