<svg role="img" viewBox="0 0 512 512" xmlns="http://www.w3.org/2000/svg">
<title>Logo vectorizado</title>
<path d="M 302 240 L 292 243 L 294 256 L 295 257 L 295 262 L 296 263 L 296 267 L 295 268 L 293 268 L 260 253 L 252 254 L 237 259 L 235 265 L 235 271 L 234 272 L 231 293 L 227 306 L 215 294 L 211 288 L 204 272 L 195 275 L 194 276 L 203 295 L 210 305 L 223 318 L 196 331 L 164 343 L 161 342 L 168 332 L 181 307 L 189 285 L 190 277 L 178 283 L 171 303 L 163 319 L 148 342 L 146 341 L 142 330 L 142 322 L 141 321 L 142 320 L 142 311 L 146 299 L 140 303 L 85 331 L 73 345 L 68 354 L 64 366 L 64 383 L 66 390 L 73 402 L 84 413 L 100 424 L 116 432 L 150 444 L 170 449 L 197 453 L 198 454 L 204 454 L 205 455 L 223 456 L 224 457 L 238 457 L 239 458 L 264 458 L 276 439 L 290 409 L 299 382 L 304 362 L 305 352 L 306 351 L 308 327 L 309 326 L 309 283 L 308 282 L 307 265 L 306 264 L 306 259 L 305 258 L 305 253 Z
    M 253 111 L 245 96 L 238 73 L 236 56 L 235 55 L 235 46 L 234 45 L 234 32 L 224 33 L 196 40 L 161 52 L 154 56 L 152 56 L 139 64 L 134 68 L 128 78 L 129 76 L 140 87 L 144 89 L 138 84 L 138 81 L 146 72 L 151 69 L 174 98 L 186 101 L 203 103 L 204 104 L 211 103 L 231 88 L 239 108 L 244 110 Z
    M 295 348 L 294 358 L 292 363 L 290 375 L 283 397 L 281 400 L 279 399 L 267 399 L 266 398 L 252 397 L 251 396 L 229 392 L 225 390 L 219 389 L 216 387 L 258 367 L 260 365 L 273 359 L 294 347 Z
    M 132 309 L 131 328 L 135 343 L 138 348 L 137 351 L 133 351 L 117 355 L 112 355 L 111 356 L 104 356 L 103 357 L 81 357 L 80 356 L 82 351 L 89 342 L 103 328 L 130 308 Z
    M 185 387 L 184 389 L 145 402 L 128 406 L 123 406 L 122 407 L 116 407 L 115 408 L 111 407 L 132 383 L 148 362 L 160 373 Z
    M 133 364 L 110 392 L 95 408 L 82 396 L 76 386 L 74 379 L 74 371 L 76 368 L 98 368 L 99 367 L 116 366 L 128 363 L 132 363 Z
    M 173 430 L 184 418 L 202 394 L 225 402 L 246 406 L 247 407 L 258 408 L 259 409 L 256 411 L 232 419 L 229 419 L 213 424 L 209 424 L 189 429 L 178 430 L 177 431 Z
    M 281 341 L 278 344 L 232 368 L 230 368 L 215 376 L 212 375 L 221 358 L 221 356 L 228 341 L 232 327 L 234 325 L 242 330 L 257 336 L 274 340 L 280 340 Z
    M 298 289 L 299 293 L 299 317 L 298 318 L 298 330 L 297 331 L 286 331 L 285 330 L 278 330 L 277 329 L 268 328 L 255 324 L 245 319 L 270 305 L 296 288 Z
    M 219 333 L 213 349 L 207 360 L 207 362 L 200 375 L 196 380 L 172 368 L 158 357 L 159 355 L 162 355 L 174 351 L 177 349 L 182 348 L 202 340 L 218 332 Z
    M 290 279 L 252 303 L 239 310 L 238 309 L 242 288 L 243 287 L 243 283 L 244 282 L 246 263 L 248 259 L 266 268 L 282 274 Z
    M 275 416 L 267 433 L 258 447 L 221 446 L 220 445 L 211 445 L 210 444 L 190 442 L 188 440 L 189 439 L 199 438 L 204 436 L 208 436 L 229 431 L 257 422 L 272 415 Z
    M 227 71 L 224 72 L 223 71 L 196 67 L 170 61 L 172 59 L 180 57 L 186 54 L 189 54 L 196 51 L 199 51 L 203 49 L 219 45 L 223 45 L 224 46 L 224 53 L 225 54 L 225 61 L 226 62 Z
    M 181 403 L 170 417 L 153 433 L 150 433 L 134 428 L 114 419 L 115 418 L 127 417 L 128 416 L 149 412 L 178 402 Z
    M 168 73 L 171 72 L 172 73 L 176 73 L 197 78 L 208 79 L 214 81 L 219 81 L 220 82 L 211 90 L 192 101 L 181 90 Z" fill="#CFD8DC" fill-rule="evenodd"/>
<path d="M 85 330 L 140 302 L 142 300 L 154 295 L 156 293 L 177 283 L 181 280 L 183 280 L 190 276 L 191 277 L 202 271 L 208 270 L 211 268 L 230 262 L 237 258 L 252 253 L 260 252 L 267 249 L 291 243 L 293 241 L 301 239 L 306 239 L 344 229 L 348 229 L 349 228 L 353 228 L 358 226 L 378 223 L 384 221 L 389 221 L 395 219 L 406 218 L 407 217 L 457 211 L 457 209 L 442 189 L 421 170 L 394 152 L 364 137 L 336 127 L 297 118 L 292 118 L 291 117 L 269 114 L 268 113 L 255 112 L 254 111 L 253 112 L 244 111 L 234 108 L 221 107 L 214 105 L 204 105 L 203 104 L 176 100 L 173 98 L 161 96 L 157 94 L 151 93 L 146 90 L 143 90 L 129 77 L 128 79 L 128 87 L 132 96 L 138 104 L 161 128 L 169 140 L 175 153 L 176 159 L 178 163 L 180 179 L 181 180 L 181 208 L 180 209 L 179 217 L 173 233 L 167 244 L 155 261 L 143 275 L 102 316 L 99 317 L 98 319 L 92 323 Z
    M 438 202 L 437 203 L 422 204 L 415 206 L 409 206 L 408 207 L 385 210 L 374 213 L 354 216 L 349 218 L 345 218 L 344 217 L 365 191 L 375 176 L 384 159 L 413 178 L 425 188 Z
    M 371 160 L 366 170 L 356 185 L 342 203 L 330 216 L 316 202 L 294 185 L 314 176 L 343 166 L 346 166 L 369 159 Z
    M 321 223 L 318 225 L 288 232 L 253 243 L 250 242 L 267 219 L 284 192 L 304 206 Z
    M 295 171 L 303 153 L 310 132 L 339 139 L 363 149 L 360 151 L 353 152 L 324 161 L 297 172 Z
    M 234 156 L 233 157 L 220 152 L 217 152 L 213 150 L 193 145 L 209 131 L 227 120 L 232 130 L 233 138 L 234 139 Z
    M 297 137 L 289 159 L 281 175 L 279 177 L 251 163 L 255 159 L 285 141 L 295 136 Z
    M 155 106 L 157 105 L 161 107 L 184 111 L 185 112 L 209 115 L 211 117 L 199 125 L 181 140 L 170 122 Z
    M 192 193 L 191 175 L 187 159 L 188 155 L 189 156 L 206 159 L 227 166 L 212 177 L 193 194 Z
    M 245 151 L 244 135 L 240 123 L 241 120 L 281 126 L 287 128 L 265 140 L 247 152 Z
    M 266 198 L 267 199 L 255 217 L 237 240 L 232 230 L 224 221 L 247 207 Z
    M 217 230 L 222 235 L 226 242 L 227 251 L 188 266 L 187 265 L 204 246 L 214 232 Z
    M 269 184 L 235 202 L 233 201 L 237 192 L 243 172 L 263 180 Z
    M 229 180 L 225 193 L 214 213 L 212 213 L 210 211 L 197 205 L 228 179 Z
    M 189 244 L 190 246 L 166 270 L 159 275 L 158 274 L 170 258 L 185 246 Z
    M 203 220 L 202 222 L 189 230 L 186 233 L 185 232 L 189 221 L 189 218 L 191 215 L 193 215 Z" fill="#B71C1C" fill-rule="evenodd"/>
</svg>
